<svg width="19" height="19" viewBox="0 0 19 19" fill="none" xmlns="http://www.w3.org/2000/svg">
<path d="M9.17225 4.16878C10.6228 4.16878 11.9896 4.81181 12.9912 5.81703V5.82C12.9912 5.33728 13.316 4.97212 13.7649 4.97212H13.8789C14.5872 4.97212 14.7292 5.64009 14.7292 5.85087L14.7321 13.3529C14.6828 13.8445 15.2398 14.0987 15.5491 13.7828C16.7515 12.546 18.1925 7.41837 14.8004 4.44962C11.6369 1.67859 7.391 2.13637 5.13356 3.692C2.73422 5.34975 1.20056 9.0114 2.69028 12.4528C4.31715 16.2047 8.968 17.3239 11.7361 16.2077C13.1373 15.6418 13.7833 17.5335 12.3268 18.1528C10.1317 19.0891 4.01434 18.9935 1.15722 14.0458C-0.773065 10.7036 -0.670941 4.82428 4.45075 1.77834C8.36534 -0.553315 13.5304 0.0926851 16.644 3.34347C19.8977 6.74506 19.7095 13.1095 16.533 15.5836C15.0943 16.7088 12.958 15.6145 12.9734 13.9752L12.9574 13.4408C11.9557 14.4329 10.6228 15.0148 9.17225 15.0148C6.30265 15.0148 3.77625 12.4878 3.77625 9.62118C3.77625 6.72368 6.30265 4.16997 9.17225 4.16997V4.16878ZM12.7817 9.41397C12.673 7.31387 11.1144 6.04918 9.23103 6.04918H9.15978C6.98903 6.04918 5.78312 7.75918 5.78312 9.69778C5.78312 11.8715 7.23959 13.2442 9.15087 13.2442C11.2842 13.2442 12.6849 11.6833 12.787 9.83671L12.7817 9.41397Z" fill="#F8F8F8"/>
</svg>
