<svg width="17" height="17" viewBox="0 0 17 17" fill="none" xmlns="http://www.w3.org/2000/svg">
<path d="M15.625 6.71876H14.4375C14.4362 5.61684 13.9979 4.56041 13.2188 3.78123C12.4396 3.00206 11.3832 2.56376 10.2812 2.56251V1.37501C11.698 1.37658 13.0563 1.94008 14.0581 2.94189C15.0599 3.9437 15.6234 5.30199 15.625 6.71876ZM11.0727 11.7549L12.4027 10.4249C12.5807 10.2469 12.8071 10.125 13.0537 10.0743C13.3004 10.0236 13.5565 10.0465 13.7903 10.1399L15.41 10.7883C15.6488 10.8838 15.8534 11.0487 15.9976 11.2616C16.1417 11.4746 16.2187 11.7258 16.2187 11.9829V14.9285C16.2191 15.1036 16.1838 15.2769 16.1149 15.4379C16.0461 15.5988 15.945 15.744 15.8181 15.8646C15.6911 15.9851 15.5409 16.0785 15.3766 16.139C15.2123 16.1995 15.0374 16.2258 14.8626 16.2164C3.50892 15.5098 1.21586 5.89344 0.790137 2.211C0.769518 2.03098 0.787247 1.84862 0.842158 1.67594C0.897068 1.50326 0.987916 1.34415 1.10873 1.2091C1.22954 1.07404 1.37757 0.966093 1.54309 0.892352C1.70861 0.818611 1.88787 0.780749 2.06907 0.781255H4.96242C5.21955 0.781247 5.47079 0.858283 5.68373 1.00243C5.89666 1.14657 6.06152 1.35121 6.15704 1.58994L6.80482 3.20969C6.89831 3.4435 6.92113 3.69959 6.87047 3.94624C6.81981 4.19289 6.69789 4.41926 6.51982 4.59729L5.18982 5.92729C5.18982 5.92729 5.92726 11.1119 11.0727 11.7549Z" fill="#F8F8F8"/>
</svg>
