<svg xmlns="http://www.w3.org/2000/svg" xmlns:xlink="http://www.w3.org/1999/xlink" viewBox="0 0 108.333 56.333" fill="#fff" fill-rule="evenodd" stroke="#000" stroke-linecap="round" stroke-linejoin="round"><use xlink:href="#A" x="4.167" y="4.167"/><symbol id="A" overflow="visible"><g stroke="none" fill-rule="nonzero"><path d="M7.95 47.666c4.383 0 7.942-3.558 7.942-7.942v-7.942H7.95c-4.383 0-7.942 3.558-7.942 7.942s3.558 7.942 7.942 7.942z" fill="#0acf83"/><path d="M0 23.834c0-4.383 3.558-7.942 7.942-7.942h7.942v15.892H7.942A7.95 7.95 0 0 1 0 23.842z" fill="#a259ff"/><path d="M0 7.942C0 3.558 3.558 0 7.942 0h7.942v15.892H7.942A7.95 7.95 0 0 1 0 7.95z" fill="#f24e1e"/><path d="M15.817 0h7.942C28.142 0 31.7 3.558 31.7 7.942s-3.558 7.942-7.942 7.942h-7.942z" fill="#ff7262"/><path d="M31.784 23.834a7.95 7.95 0 0 1-7.942 7.942c-4.383 0-8.025-3.558-8.025-7.942a7.95 7.95 0 0 1 7.942-7.942c4.383 0 7.942 3.558 7.942 7.942z" fill="#1abcfe"/><path d="M40.467 13.167v16.65h2.142v-7.95h5.15V19.8h-5.15v-4.55H49.3v-2.083zm12.708 3.383a1.4 1.4 0 0 0 1.4-1.4c0-.775-.633-1.317-1.4-1.317s-1.4.625-1.4 1.4c0 .375.15.725.417 1s.617.417 1 .417zm-1.083 2.1v11.167h2.058V18.65h-2.125zm10.1-.333c-2.85 0-4.833 2.5-4.833 5.267s2 5.25 4.833 5.25a4.25 4.25 0 0 0 3.158-1.325v1.483a3.5 3.5 0 0 1-.967 2.392c-.628.64-1.487 1.001-2.383 1a3.5 3.5 0 0 1-1.9-.633l-1.083 1.858a5.5 5.5 0 0 0 8.475-4.642V18.634H65.35v1a4.25 4.25 0 0 0-3.158-1.325zm-2.683 5.267c-.1-1.105.437-2.171 1.383-2.75s2.142-.583 3.083 0a2.95 2.95 0 0 1 1.383 2.75c.1 1.105-.437 2.171-1.383 2.75s-2.142.583-3.083 0a2.95 2.95 0 0 1-1.383-2.75zM75.217 20.5c-1.282.005-2.32 1.043-2.325 2.325v7.067H70.75V18.725h2.142v.942c.65-.867 1.683-1.367 2.767-1.35a3.72 3.72 0 0 1 3.317 1.892c.833-1.167 2.033-1.875 3.333-1.892 2.442 0 3.958 1.967 3.967 4.4v7.108h-2.142v-7.083c.128-.901-.279-1.794-1.043-2.288s-1.746-.499-2.515-.012a2.33 2.33 0 0 0-1.033 2.3v7.067h-2.058V22.75c-.005-1.282-1.043-2.32-2.325-2.325zm22.5-.583a5.17 5.17 0 0 0-3.775-1.592c-3.192 0-5.417 2.7-5.417 5.833s2.25 5.833 5.417 5.833a5.17 5.17 0 0 0 3.775-1.592v1.267h2.142V18.5h-2.142zm-7.083 4.333c-.108-1.333.542-2.617 1.683-3.317s2.5-.7 3.717 0c1.136.705 1.785 1.984 1.683 3.317.108 1.333-.542 2.617-1.683 3.317s-2.5.7-3.717 0c-1.136-.705-1.785-1.984-1.683-3.317z" fill="#000"/></g></symbol></svg>