<svg xmlns="http://www.w3.org/2000/svg" xmlns:xlink="http://www.w3.org/1999/xlink" viewBox="0 0 97 47" fill="#fff" fill-rule="evenodd" stroke="#000" stroke-linecap="round" stroke-linejoin="round"><use xlink:href="#A" x=".5" y=".5"/><symbol id="A" overflow="visible"><path d="M40.115 22.409a5.91 5.91 0 0 0-4.413-5.704L41.365 0H13.292l5.678 16.758a5.9 5.9 0 0 0-4.255 5.665c0 1.976.988 3.728 2.5 4.8-.593.843-1.278 1.62-2.055 2.358-1.462 1.37-3.083 2.424-4.835 3.122-1.58-1.067-2.266-2.95-1.647-4.637 2.4-.738 4.163-3 4.163-5.64a5.9 5.9 0 0 0-5.89-5.89 5.91 5.91 0 0 0-5.902 5.902c0 1.607.66 3.083 1.713 4.137l-.277.566c-.883 1.818-1.884 3.873-2.266 6.18-.764 4.6.487 8.313 3.504 10.408 1.7 1.172 3.57 1.765 5.586 1.765 3.465 0 6.982-1.74 10.38-3.425 2.424-1.2 4.927-2.45 7.4-3.056.9-.224 1.858-.356 2.86-.5 2.03-.3 4.124-.593 6.007-1.686 2.2-1.278 3.702-3.412 4.137-5.862.33-1.884 0-3.78-.843-5.44a5.87 5.87 0 0 0 .883-3.122zm-2.57 0c0 1.83-1.5 3.32-3.32 3.32a3.34 3.34 0 0 1-2.885-4.967c.105-.184.237-.37.37-.527a2.9 2.9 0 0 1 .461-.435l.013-.013c.105-.08.224-.158.343-.237.066-.04.12-.08.17-.105.013 0 .026-.013.04-.013.053-.026.12-.053.184-.08s.132-.053.184-.08c.013 0 .026-.013.04-.013.053-.013.105-.04.158-.053.013 0 .04-.013.053-.013l.184-.04h.013l.198-.04c.013 0 .04 0 .053-.013.053 0 .105-.013.158-.013h.066c.066 0 .132-.013.2-.013h.17a.54.54 0 0 1 .145.013h.026a2.5 2.5 0 0 1 .316.053 3.35 3.35 0 0 1 2.648 3.267zM16.967 2.635H37.69l-4.756 14.03c-.198.04-.395.105-.593.17l-5.006-10.2-5.02 10.137c-.198-.066-.408-.105-.62-.145zm9.42 18.628a5.84 5.84 0 0 0-1.78-3.162l2.727-5.507 2.753 5.625c-.817.817-1.4 1.858-1.647 3.043zm-6.6-2.082l.184-.04h.04c.053-.013.105-.013.158-.026h.053c.053 0 .092-.013.145-.013h.514c.053 0 .092.013.132.013.026 0 .04 0 .066.013.053.013.092.013.145.026.013 0 .026 0 .053.013l.184.04a.65.65 0 0 1 .171.053c.013 0 .026.013.053.013.04.013.092.026.132.053.013 0 .026.013.04.013.053.026.105.04.158.066h.013c.061.023.119.054.171.092.066.026.12.066.17.092.013 0 .013.013.026.013.053.026.092.066.145.092l.013.013c.155.121.304.248.448.382l.013.013c.137.146.261.305.369.474a3.31 3.31 0 0 1 .54 1.818c0 1.83-1.5 3.32-3.32 3.32a3.34 3.34 0 0 1-3.32-3.32c-.013-1.54 1.054-2.846 2.503-3.214zm-12.963-.092c1.83 0 3.32 1.5 3.32 3.32a3.34 3.34 0 0 1-3.32 3.32 3.34 3.34 0 0 1-3.32-3.32 3.34 3.34 0 0 1 3.32-3.32zm30.641 11.423c-.3 1.686-1.33 3.162-2.86 4.044-1.436.83-3.2 1.093-5.06 1.357-1.014.145-2.082.303-3.1.553-2.74.672-5.375 2-7.93 3.254-3.267 1.62-6.35 3.15-9.2 3.15-1.5 0-2.82-.422-4.084-1.304-2.913-2.014-2.768-5.759-2.416-7.814.316-1.923 1.2-3.728 2.042-5.454.053-.105.092-.198.145-.303.296.105.6.185.91.237-.5 2.793.922 5.678 3.7 7.1l.5.263.54-.198c2.305-.817 4.44-2.147 6.324-3.926 1.041-.97 1.961-2.063 2.74-3.254.297.048.599.07.9.066a5.91 5.91 0 0 0 5.704-4.413h2.213c.66 2.543 2.964 4.413 5.704 4.413a5.83 5.83 0 0 0 2.977-.817c.343.988.448 2.016.263 3.043zm21.113-1.436a4.32 4.32 0 0 1-.91 1.634c-.423.474-.988.856-1.7 1.146s-1.58.435-2.622.435c-1.74 0-3.083-.46-4.018-1.37s-1.4-2.266-1.4-4.03v-1.139h2.487v.8a7.67 7.67 0 0 0 .132 1.5c.092.46.237.843.46 1.173a2.28 2.28 0 0 0 .909.777c.395.184.896.277 1.502.277 1.133 0 1.9-.303 2.345-.9.422-.606.646-1.423.646-2.45V13.214h2.477v14.018a6.43 6.43 0 0 1-.3 1.844zm13.557 1.936c-1.014.764-2.28 1.146-3.82 1.146-1.08 0-2.016-.17-2.806-.527a5.44 5.44 0 0 1-2.002-1.462c-.54-.632-.95-1.37-1.212-2.253-.277-.87-.422-1.818-.46-2.846 0-1.028.158-1.963.474-2.82a6.83 6.83 0 0 1 1.317-2.226 5.82 5.82 0 0 1 2.016-1.462c.778-.342 1.62-.527 2.543-.527 1.2 0 2.2.25 3 .75s1.423 1.133 1.9 1.897a7.65 7.65 0 0 1 .988 2.503c.175.849.25 1.716.224 2.582h-10.1c-.017.569.051 1.137.2 1.686.147.526.408 1 .764 1.4.343.408.8.738 1.33.975.54.25 1.173.37 1.9.37.935 0 1.713-.224 2.32-.66s1-1.093 1.186-2h2.2c-.303 1.54-.95 2.688-1.963 3.452zm-.54-8.67c-.198-.474-.474-.87-.804-1.212a3.76 3.76 0 0 0-1.199-.804c-.46-.198-.975-.303-1.528-.303-.58 0-1.093.105-1.555.303s-.856.474-1.186.817a4.21 4.21 0 0 0-.8 1.212c-.207.462-.303.95-.343 1.476h7.76a4.65 4.65 0 0 0-.356-1.489zm6.705 6.5a2.38 2.38 0 0 0 .817.804 3.98 3.98 0 0 0 1.146.435c.422.092.87.132 1.317.132a8.06 8.06 0 0 0 1.093-.079 3.76 3.76 0 0 0 1.054-.29c.316-.145.593-.343.8-.62.2-.263.316-.62.316-1.028 0-.58-.224-1.014-.66-1.304s-.975-.54-1.634-.725l-2.134-.5c-.764-.145-1.476-.356-2.134-.632a4.27 4.27 0 0 1-1.634-1.133c-.434-.487-.66-1.173-.66-2.042 0-.685.158-1.265.46-1.752a3.72 3.72 0 0 1 1.173-1.186c.475-.303 1.014-.527 1.62-.685.586-.145 1.188-.22 1.792-.224.712-.005 1.422.061 2.12.198.644.132 1.212.356 1.713.685.5.316.896.764 1.186 1.304.3.553.474 1.238.527 2.055h-2.226c-.04-.435-.145-.8-.343-1.08a2.45 2.45 0 0 0-.738-.698c-.3-.17-.62-.303-.975-.382s-.725-.12-1.08-.12c-.335 0-.67.026-1.001.079a3.28 3.28 0 0 0-.922.277 1.95 1.95 0 0 0-.685.527c-.17.224-.263.5-.263.843 0 .382.132.698.408.95.263.25.62.46 1.028.632.422.17.883.303 1.4.422l1.568.356c.552.121 1.097.271 1.634.448a5 5 0 0 1 1.4.698 3.37 3.37 0 0 1 .988 1.08c.25.435.382.975.382 1.62 0 .817-.17 1.502-.514 2.042a4.06 4.06 0 0 1-1.331 1.304c-.553.33-1.173.566-1.858.698a10.86 10.86 0 0 1-2.055.198c-.722.002-1.443-.077-2.147-.237a5.05 5.05 0 0 1-1.805-.777c-.527-.356-.935-.83-1.252-1.4s-.487-1.3-.527-2.134h2.226c.066.5.184.922.395 1.252zm17.14-10.477v1.963h-2.688v8.392c0 .263.026.474.066.632s.132.277.25.37.3.145.514.17.5.04.843.04h1.014v1.963h-1.7c-.58 0-1.067-.04-1.476-.12s-.738-.224-.988-.435-.435-.5-.566-.883c-.12-.382-.184-.883-.184-1.515v-8.6H88.22v-1.963h2.305v-4.057h2.226v4.044z" stroke="none" fill="#99424f" fill-rule="nonzero"/></symbol></svg>